<svg xmlns="http://www.w3.org/2000/svg" viewBox="0 0 100 100" width="100" height="100">
    <rect width="100" height="100" rx="18" fill="#1a1a1a"/>
    <!-- Corner brackets -->
    <!-- Top-left -->
    <path d="M8 22 L8 8 L22 8" stroke="white" stroke-width="3.5" fill="none" stroke-linecap="round" stroke-linejoin="round"/>
    <!-- Top-right -->
    <path d="M78 8 L92 8 L92 22" stroke="white" stroke-width="3.5" fill="none" stroke-linecap="round" stroke-linejoin="round"/>
    <!-- Bottom-left -->
    <path d="M8 78 L8 92 L22 92" stroke="white" stroke-width="3.5" fill="none" stroke-linecap="round" stroke-linejoin="round"/>
    <!-- Bottom-right -->
    <path d="M78 92 L92 92 L92 78" stroke="white" stroke-width="3.5" fill="none" stroke-linecap="round" stroke-linejoin="round"/>
    <!-- Body silhouette: shoulders, chest, torso -->
    <path d="M34 18 C34 18 28 22 26 30 C24 36 26 42 30 46 C26 48 22 52 21 60 L79 60 C78 52 74 48 70 46 C74 42 76 36 74 30 C72 22 66 18 66 18 C62 14 55 12 50 12 C45 12 38 14 34 18 Z" stroke="white" stroke-width="2.2" fill="none" stroke-linecap="round" stroke-linejoin="round"/>
    <!-- Chest line -->
    <path d="M38 42 C41 46 45 48 50 48 C55 48 59 46 62 42" stroke="white" stroke-width="1.8" fill="none" stroke-linecap="round"/>
    <!-- Abs lines -->
    <line x1="46" y1="50" x2="46" y2="58" stroke="white" stroke-width="1.5" stroke-linecap="round"/>
    <line x1="54" y1="50" x2="54" y2="58" stroke="white" stroke-width="1.5" stroke-linecap="round"/>
    <line x1="38" y1="54" x2="62" y2="54" stroke="white" stroke-width="1.3" stroke-linecap="round"/>
</svg>
